<?xml version="1.0" standalone="no"?><!DOCTYPE svg PUBLIC "-//W3C//DTD SVG 1.1//EN" "http://www.w3.org/Graphics/SVG/1.1/DTD/svg11.dtd"><svg t="1511599015783" class="icon" style="" viewBox="0 0 1024 1024" version="1.1" xmlns="http://www.w3.org/2000/svg" p-id="13952" xmlns:xlink="http://www.w3.org/1999/xlink" width="24" height="24"><defs><style type="text/css"></style></defs><path d="M505.891 53.862c-253.004 3.382-455.411 211.266-452.029 464.334 3.382 252.894 211.266 455.367 464.269 451.964 253.004-3.382 455.411-211.266 452.029-464.334-3.338-252.938-211.266-455.346-464.269-451.964v0zM556.684 206.567c46.56 0 60.306 26.989 60.306 57.906 0 38.618-30.938 74.313-83.673 74.313-44.116 0-65.106-22.211-63.862-58.866 0.022-30.916 25.92-73.353 87.229-73.353zM437.251 798.386c-31.833 0-55.134-19.331-32.88-104.291l36.502-150.611c6.327-24.153 7.374-33.818 0-33.818-9.513 0-50.858 16.691-75.294 33.12l-15.884-26.051c77.454-64.647 166.494-102.589 204.654-102.589 31.811 0 37.091 37.658 21.207 95.564l-41.826 158.378c-7.374 27.993-4.189 37.658 3.186 37.658 9.513 0 40.844-11.564 71.607-35.76l17.978 24.153c-75.251 75.251-157.374 104.247-189.251 104.247v0z" p-id="13953" fill="#148014"></path></svg>