<?xml version="1.0" standalone="no"?><!DOCTYPE svg PUBLIC "-//W3C//DTD SVG 1.1//EN" "http://www.w3.org/Graphics/SVG/1.1/DTD/svg11.dtd"><svg t="1512195999122" class="icon" style="" viewBox="0 0 1024 1024" version="1.1" xmlns="http://www.w3.org/2000/svg" p-id="1919" xmlns:xlink="http://www.w3.org/1999/xlink" width="24" height="24"><defs><style type="text/css"></style></defs><path d="M512 447.71416016q119.02939453 0 222.48896484-21.59560547t163.22519532-63.78398438v85.37958985q0 34.65439453-51.72978516 64.28583984t-140.625 46.95908203-193.359375 17.32675781-193.359375-17.32675781T178.015625 512t-51.72978516-64.28583984v-85.37958985q59.765625 42.1875 163.22519532 63.78398438T512 447.71416016z m0 385.71416015q119.02939453 0 222.48896484-21.59560547t163.22519532-63.78398437v85.37958984q0 34.65439453-51.72978516 64.28583985t-140.625 46.95908203T512 962t-193.359375-17.32675781-140.625-46.95908203-51.72978516-64.28583985v-85.37958984q59.765625 42.1875 163.22519532 63.78398437T512 833.42832031z m0-192.85664062q119.02939453 0 222.48896484-21.59648438t163.22519532-63.78310547v85.37958985q0 34.65351562-51.72978516 64.28583984t-140.625 46.95820313-193.359375 17.32675781-193.359375-17.32675781-140.625-46.95820313-51.72978516-64.28583984v-85.37958985q59.765625 42.1875 163.22519532 63.78310547T512 640.57167969zM512 62q104.46416016 0 193.359375 17.32675781t140.625 46.95908203 51.72978516 64.28583985v64.28583984q0 34.65351562-51.72978516 64.28496094T705.359375 366.1015625t-193.359375 17.32675781T318.640625 366.1015625t-140.625-46.95908203-51.72978516-64.28496094v-64.28583984q0-34.65439453 51.72978516-64.28583985t140.625-46.95908203T512 62z" p-id="1920" fill="#148014"></path></svg>