<?xml version="1.0" standalone="no"?><!DOCTYPE svg PUBLIC "-//W3C//DTD SVG 1.1//EN" "http://www.w3.org/Graphics/SVG/1.1/DTD/svg11.dtd"><svg t="1512029509176" class="icon" style="" viewBox="0 0 1024 1024" version="1.1" xmlns="http://www.w3.org/2000/svg" p-id="1684" xmlns:xlink="http://www.w3.org/1999/xlink" width="24" height="24"><defs><style type="text/css"></style></defs><path d="M415.468308 1023.842462c-141.902769-6.104615-258.56-45.174154-325.395693-108.937847-16.659692-15.911385-36.627692-41.708308-44.189538-57.107692l-5.041231-10.318769 0.078769-121.895385c0.118154-120.871385 0.118154-121.777231 2.205539-112.521846 5.868308 25.954462 22.488615 53.444923 45.489231 75.185231 15.399385 14.572308 48.994462 36.706462 76.918153 50.609231 47.261538 23.630769 105.156923 40.841846 167.975385 50.057846 36.903385 5.395692 51.987692 6.340923 103.305846 6.380307 26.978462 0.039385 52.854154-0.315077 57.422769-0.787692l8.388924-0.905846v3.623385c0 5.474462 3.308308 25.521231 6.340923 38.557538 14.217846 60.691692 97.398154 168.881231 97.398153 168.881231-33.083077 8.113231-77.272615 14.926769-113.545846 17.486769-18.392615 1.260308-63.566769 2.284308-77.351384 1.693539z m0-302.552616c-113.821538-3.938462-218.112-32.610462-288.059077-79.241846-37.848615-25.284923-63.133538-53.484308-81.289846-90.781538l-5.277539-10.870154 0.078769-119.571693c0.118154-118.665846 0.118154-119.492923 2.205539-110.237538 4.292923 18.983385 14.769231 39.620923 29.223384 57.619692 8.428308 10.476308 22.055385 23.709538 29.696 28.868923 2.835692 1.890462 9.570462 6.616615 14.966154 10.436923 54.468923 38.754462 129.772308 66.244923 216.497231 78.92677 37.888 5.553231 51.712 6.380308 105.629539 6.380307 40.723692 0 55.296-0.433231 70.419692-2.008615 105.156923-11.067077 186.998154-38.203077 252.258461-83.574154 16.265846-11.303385 19.889231-14.178462 29.105231-22.764308 21.385846-19.968 38.439385-48.482462 44.189539-73.885538 2.126769-9.334154 2.126769-9.097846 2.205538 88.300308l0.118154 97.634461-12.996923-2.284308c-18.432-3.268923-66.048-3.465846-84.558769-0.393846-54.075077 8.979692-98.894769 29.262769-139.106462 62.897231a281.993846 281.993846 0 0 0-92.278154 150.488615l-2.56 11.145847-5.395692 0.708923a996.036923 996.036923 0 0 1-66.008615 2.717538 2478.867692 2478.867692 0 0 1-19.062154-0.512z m-21.937231-302.434461a1036.603077 1036.603077 0 0 1-60.022154-6.301539c-62.857846-9.216-120.713846-26.427077-167.975385-50.057846C99.800615 329.688615 59.864615 289.28 44.307692 239.852308 40.723692 228.470154 39.778462 201.176615 42.535385 187.510154 59.785846 101.376 175.182769 29.538462 333.508923 6.380308 371.396923 0.827077 385.220923 0 439.138462 0s67.741538 0.827077 105.629538 6.380308c62.818462 9.176615 120.713846 26.427077 167.975385 50.018461 69.513846 34.737231 112.955077 80.974769 122.998153 131.111385 2.717538 13.666462 1.811692 40.96-1.772307 52.342154-7.837538 24.891077-19.849846 44.622769-39.778462 65.260307-56.359385 58.446769-158.286769 98.579692-283.490461 111.655385-16.974769 1.772308-101.651692 3.268923-117.169231 2.087385z" p-id="1685" fill="#148014"></path><path d="M717.233231 832.236308l-29.105231-2.796308-5.513846-5.513846-13.863385 44.307692 8.310154 9.728 47.104-12.484923-6.931692-5.553231v-27.687384z" p-id="1686"></path><path d="M769.890462 555.165538a214.921846 214.921846 0 0 0-214.724924 214.724924c0 117.76 96.964923 214.724923 214.724924 214.724923A214.921846 214.921846 0 0 0 984.615385 769.890462a214.921846 214.921846 0 0 0-214.724923-214.724924z m22.173538 272.896l-2.796308 2.796308-47.104 47.104-83.101538 24.930462s-6.931692 1.378462-11.106462-2.796308c-4.135385-4.135385-2.756923-11.067077-2.756923-11.067077l24.930462-81.723077 47.104-47.104 2.796307-2.796308 76.169847-77.587692 72.034461 72.073846-76.169846 76.169846z m84.48-85.897846l-72.034462-72.034461 9.688616-9.688616 72.073846 72.034462-9.728 9.688615z m30.483692-27.687384l-11.067077 11.067077-72.034461-72.034462 11.067077-11.067077c9.688615-9.728 19.416615-1.378462 19.416615-1.378461l52.617846 52.617846c0 1.378462 9.688615 9.688615 0 20.795077z" p-id="1687" fill="#148014"></path></svg>