<?xml version="1.0" standalone="no"?><!DOCTYPE svg PUBLIC "-//W3C//DTD SVG 1.1//EN" "http://www.w3.org/Graphics/SVG/1.1/DTD/svg11.dtd"><svg t="1511598985814" class="icon" style="" viewBox="0 0 1024 1024" version="1.1" xmlns="http://www.w3.org/2000/svg" p-id="13224" xmlns:xlink="http://www.w3.org/1999/xlink" width="48" height="48"><defs><style type="text/css"></style></defs><path d="M424.1 342.9H875c46.5 0 84.6-38 84.6-84.6s-38-84.6-84.6-84.6H424.1c-46.5 0-84.6 38-84.6 84.6s38.1 84.6 84.6 84.6zM875.1 427.4h-451c-46.5 0-84.6 38-84.6 84.6s38 84.6 84.6 84.6H875c46.5 0 84.6-38 84.6-84.6s-38-84.6-84.5-84.6zM875.1 681.1h-451c-46.5 0-84.6 38-84.6 84.6s38 84.6 84.6 84.6H875c46.5 0 84.6-38 84.6-84.6s-38-84.6-84.5-84.6zM148.9 173.8c-46.5 0-84.6 38-84.6 84.6s38 84.6 84.6 84.6c46.5 0 84.6-38 84.6-84.6s-38-84.6-84.6-84.6zM148.9 427.4c-46.5 0-84.6 38-84.6 84.6s38 84.6 84.6 84.6c46.5 0 84.6-38 84.6-84.6s-38-84.6-84.6-84.6zM148.9 681.1c-46.5 0-84.6 38-84.6 84.6s38 84.6 84.6 84.6c46.5 0 84.6-38 84.6-84.6s-38-84.6-84.6-84.6z" p-id="13225" fill="#148014"></path></svg>