<?xml version="1.0" standalone="no"?><!DOCTYPE svg PUBLIC "-//W3C//DTD SVG 1.1//EN" "http://www.w3.org/Graphics/SVG/1.1/DTD/svg11.dtd"><svg t="1511598923755" class="icon" style="" viewBox="0 0 1024 1024" version="1.1" xmlns="http://www.w3.org/2000/svg" p-id="11300" xmlns:xlink="http://www.w3.org/1999/xlink" width="24" height="24"><defs><style type="text/css"></style></defs><path d="M407.04 986.514286c-121.051429-6.290286-228.608-43.666286-287.414857-99.876572-17.042286-16.274286-34.304-38.509714-41.764572-53.796571L73.142857 823.186286l0.292572-113.078857c0.219429-96.841143 0.475429-111.981714 1.682285-105.545143 4.242286 22.674286 20.845714 50.578286 42.203429 70.765714 14.372571 13.604571 45.750857 34.304 71.606857 47.213714 43.885714 21.906286 97.609143 37.888 155.940571 46.445715 34.267429 5.010286 48.274286 5.888 95.926858 5.924571 25.051429 0.036571 48.932571-0.292571 53.101714-0.731429l7.533714-0.804571 1.938286 14.189714a260.022857 260.022857 0 0 0 100.790857 171.556572l8.484571 6.473143-6.875428 1.938285c-10.861714 3.072-46.153143 10.166857-62.610286 12.580572-45.275429 6.582857-90.88 8.740571-136.118857 6.4z m332.763429-33.243429a206.555429 206.555429 0 0 1-141.568-78.116571c-25.417143-32.950857-39.277714-68.864-42.898286-111.104-5.632-65.316571 23.588571-133.376 74.861714-174.445715a204.434286 204.434286 0 0 1 114.761143-45.787428c65.426286-5.449143 133.302857 23.698286 174.336 74.898286 21.321143 26.624 34.998857 55.222857 41.910857 87.588571 16.274286 76.434286-13.056 156.854857-74.569143 204.324571a206.08 206.08 0 0 1-146.834285 42.642286z m104.886857-154.916571l-26.989715-26.989715 1.792-2.706285c2.925714-4.461714 7.826286-17.810286 9.910858-26.916572 1.316571-5.741714 1.938286-12.653714 1.901714-20.918857-0.073143-16.274286-2.925714-27.904-10.532572-43.373714a91.574857 91.574857 0 0 0-45.056-44.470857 86.418286 86.418286 0 0 0-33.206857-9.545143 95.268571 95.268571 0 0 0-52.516571 9.545143 98.011429 98.011429 0 0 0-55.076572 98.048c1.316571 13.019429 3.474286 20.516571 9.545143 33.206857 9.874286 20.736 23.881143 34.962286 44.434286 45.056 15.469714 7.643429 27.136 10.459429 43.410286 10.532571 8.265143 0.036571 15.177143-0.585143 20.918857-1.901714 9.106286-2.048 22.418286-6.985143 26.916571-9.910857l2.706286-1.792 53.942857 53.942857 17.444572-17.408 17.408-17.408-26.953143-26.989714z m-118.820572-25.088a53.796571 53.796571 0 0 1-38.253714-29.622857 39.021714 39.021714 0 0 1-4.388571-18.285715c-0.658286-13.056 1.499429-21.248 8.484571-31.926857 4.242286-6.509714 6.656-8.923429 13.165714-13.202286 10.715429-6.985143 18.907429-9.142857 31.963429-8.448 8.521143 0.438857 11.117714 1.060571 18.285714 4.352 32.548571 15.067429 40.411429 57.673143 15.286857 82.797715a51.785143 51.785143 0 0 1-44.544 14.336z m-318.829714-67.474286c-108.434286-6.144-204.214857-35.584-266.020571-81.773714-13.897143-10.349714-34.267429-30.317714-42.313143-41.435429a228.132571 228.132571 0 0 1-20.626286-34.230857l-4.900571-10.093714 0.073142-110.994286c0.073143-110.153143 0.109714-110.957714 2.048-102.326857 3.986286 17.590857 13.714286 36.754286 27.136 53.467428 7.826286 9.728 20.443429 22.016 27.538286 26.806858 2.633143 1.755429 8.886857 6.144 13.897143 9.691428 57.563429 40.96 136.448 67.072 233.691429 77.312 25.380571 2.669714 105.325714 2.669714 130.742857 0 74.349714-7.826286 136.557714-24.466286 188.635428-50.505143 25.819429-12.873143 56.210286-32.987429 71.789715-47.469714 20.553143-19.090286 36.425143-45.385143 41.837714-69.302857 1.938286-8.667429 1.938286-8.448 2.048 82.212571 0.073143 86.089143-0.036571 90.88-1.792 90.331429-15.396571-4.608-64.256-5.924571-87.625143-2.377143a306.907429 306.907429 0 0 0-51.602286 12.982857 330.130286 330.130286 0 0 0-53.979428 27.209143 255.524571 255.524571 0 0 0-89.490286 101.412571c-9.508571 19.309714-14.409143 32.329143-19.382857 51.785143a211.602286 211.602286 0 0 1-4.169143 14.994286c-2.084571 2.121143-71.936 3.730286-97.536 2.304z m-6.436571-280.356571c-71.68-5.558857-126.72-17.152-178.468572-37.558858-62.756571-24.795429-107.702857-58.002286-131.84-97.389714a151.076571 151.076571 0 0 1-13.568-29.988571c-3.657143-10.569143-4.681143-36.498286-2.011428-49.846857 16.091429-79.981714 123.172571-146.651429 270.153142-168.155429C380.050286 37.339429 392.886857 36.571429 442.916571 36.571429c50.066286 0 62.902857 0.768 98.084572 5.924571 58.294857 8.521143 112.054857 24.539429 155.940571 46.445714 64.548571 32.219429 104.813714 75.154286 114.176 121.709715 2.706286 13.348571 1.682286 39.277714-1.974857 49.846857-8.301714 24.137143-18.322286 40.411429-36.571428 59.318857-52.333714 54.272-146.944 91.538286-263.204572 103.68-15.725714 1.645714-94.354286 3.035429-108.763428 1.938286z" p-id="11301" fill="#148014"></path></svg>